<?xml version="1.0" encoding="UTF-8"?>
<svg id="svg8" width="12mm" height="12.695mm" version="1.1" viewBox="0 0 12 12.695" xmlns="http://www.w3.org/2000/svg" xmlns:cc="http://creativecommons.org/ns#" xmlns:dc="http://purl.org/dc/elements/1.1/" xmlns:rdf="http://www.w3.org/1999/02/22-rdf-syntax-ns#" xmlns:xlink="http://www.w3.org/1999/xlink">
 <metadata id="metadata5">
  <rdf:RDF>
   <cc:Work rdf:about="">
    <dc:format>image/svg+xml</dc:format>
    <dc:type rdf:resource="http://purl.org/dc/dcmitype/StillImage"/>
    <dc:title/>
   </cc:Work>
  </rdf:RDF>
 </metadata>
 <g id="layer1">
  <g id="Editor" transform="matrix(.26458 0 0 .26458 112.59 87.718)" fill="none">
   <g id="g3112" transform="matrix(1.0364 0 0 .99997 -516.63 -401.76)" stroke-width="1.5">
    <path id="Path" d="m92.371 95.469v10.757c0 1.2426 1.0074 2.25 2.25 2.25h3.9549c0.25316 0 0.50633 0.12676 0.63291 0.25352l1.2658 1.2676c0.12658 0.12676 0.37974 0.25352 0.63291 0.25352h2.9114c0.25317 0 0.50633-0.12676 0.63291-0.25352l1.2658-1.2676c0.12658-0.12676 0.37975-0.25352 0.63291-0.25352h14.977c0.50633 0 0.88607 0.38028 0.88607 0.88733v5.4507c0 0.50704-0.37974 0.88732-0.88607 0.88732h-21.767c-0.25316 0-0.50632 0.12677-0.6329 0.25353l-1.2658 1.2676c-0.12659 0.12676-0.37975 0.25352-0.63291 0.25352h-2.9114c-0.25316 0-0.50632-0.12676-0.6329-0.25352l-1.2658-1.2676c-0.12658-0.12676-0.37974-0.25353-0.6329-0.25353h-2.2785c-0.50632 0-0.88607-0.38028-0.88607-0.88732v-27.933c0-0.50704 0.50632-0.88732 0.88607-0.88732h2.2785c0.25316 0 0.50632 0.12676 0.6329 0.25352l1.2658 1.2676c0.12658 0.12676 0.37974 0.25352 0.6329 0.25352h2.9114c0.25316 0 0.50632-0.12676 0.63291-0.25352l1.2658-1.2676c0.12658-0.12676 0.37974-0.25352 0.6329-0.25352h20.977c0.50632 0 0.88607 0.38028 0.88607 0.88732v5.4507c0 0.50704-0.37975 0.88733-0.88607 0.88733h-14.116c-0.25316 0-0.50632 0.12676-0.6329 0.25352l-1.2658 1.2676c-0.12658 0.12676-0.37975 0.25353-0.63291 0.25353h-2.9114c-0.25316 0-0.50632-0.12677-0.6329-0.25353l-1.2658-1.2676c-0.12658-0.12676-0.37974-0.25352-0.6329-0.25352h-4.0254c-1.2426 0-2.25 1.0074-2.25 2.25z" fill="#ffab19" stroke="#ec9c13"/>
    <path id="Shape-Copy-20" d="m96.298 97.244h2.2785c0.25316 0 0.50633 0.12676 0.63291 0.25352l1.2658 1.2676c0.12658 0.12676 0.37974 0.25352 0.63291 0.25352h2.9114c0.25317 0 0.50633-0.12676 0.63291-0.25352l1.2658-1.2676c0.12658-0.12676 0.37975-0.25352 0.63291-0.25352h23.447c0.50633 0 0.88607 0.38028 0.88607 0.88732v5.4507c0 0.50704-0.37974 0.88733-0.88607 0.88733h-23.447c-0.25316 0-0.50633 0.12676-0.63291 0.25352l-1.2658 1.2676c-0.12658 0.12676-0.37974 0.25353-0.63291 0.25353h-2.9114c-0.25317 0-0.50633-0.12677-0.63291-0.25353l-1.2658-1.2676c-0.12658-0.12676-0.37975-0.25352-0.63291-0.25352h-2.2785c-0.50633 0-0.88607-0.38029-0.88607-0.88733v-5.4507c0-0.50704 0.50633-0.88732 0.88607-0.88732z" fill="#96f" stroke="#855cd6"/>
    <path id="Shape-Copy-19" d="m96.739 70.994c6.2248 0 8.5785 3.7672 8.5785 3.7672h12.46c0.50633 0 0.88607 0.38028 0.88607 0.88732v5.4507c0 0.50704-0.37974 0.88732-0.88607 0.88732h-17.977c-0.25316 0-0.50633 0.12676-0.63291 0.25352l-1.2658 1.2676c-0.12658 0.12676-0.37974 0.25352-0.63291 0.25352h-2.9114c-0.25317 0-0.50633-0.12676-0.63291-0.25352l-1.2658-1.2676c-0.12658-0.12676-0.37975-0.25352-0.63291-0.25352h-2.2785c-0.50632 0-0.88607-0.38028-0.88607-0.88732v-6.338s1.8525-3.7672 8.0773-3.7672z" fill="#ffbf00" stroke="#e6ac00"/>
   </g>
  </g>
 </g>
</svg>
